<?xml version="1.0" encoding="UTF-8"?>
<svg id="Layer_2" data-name="Layer 2" xmlns="http://www.w3.org/2000/svg" viewBox="0 0 327.96 78.54">
  <defs>
    <style>
      .cls-1 {
        fill: #1c1c1c;
      }

      .cls-2 {
        fill: #4cab65;
      }
    </style>
  </defs>
  <g id="Layer_1-2" data-name="Layer 1">
    <g>
      <g>
        <path class="cls-1" d="m134.77,78.24v-20.36h3.69v9.36h.25l7.95-9.36h4.5l-7.88,9.14,7.95,11.23h-4.44l-6.08-8.73-2.26,2.67v6.07h-3.69Z"/>
        <path class="cls-1" d="m167.24,78.24l-5.75-20.36h3.97l3.67,14.96h.19l3.92-14.96h3.61l3.93,14.97h.18l3.67-14.97h3.97l-5.75,20.36h-3.64l-4.08-14.29h-.16l-4.09,14.29h-3.64Z"/>
        <path class="cls-1" d="m200.39,78.24v-20.36h13.24v3.09h-9.56v5.53h8.87v3.09h-8.87v5.56h9.63v3.09h-13.32Z"/>
        <path class="cls-1" d="m226.64,78.24v-20.36h13.24v3.09h-9.55v5.53h8.87v3.09h-8.87v5.56h9.63v3.09h-13.32Z"/>
        <path class="cls-1" d="m263.96,63.47c-.09-.87-.48-1.54-1.17-2.03s-1.58-.73-2.67-.73c-.77,0-1.43.12-1.98.35s-.97.55-1.26.94c-.29.4-.44.85-.45,1.36,0,.42.1.79.29,1.1.2.31.46.58.8.79.34.21.71.4,1.12.54.41.15.82.27,1.24.37l1.91.48c.77.18,1.51.42,2.22.73.71.31,1.35.69,1.92,1.15s1.02,1.02,1.35,1.68c.33.66.5,1.43.5,2.31,0,1.19-.3,2.24-.91,3.15s-1.49,1.61-2.64,2.12c-1.15.51-2.54.76-4.17.76s-2.96-.25-4.12-.74c-1.16-.49-2.07-1.21-2.72-2.15-.65-.94-1.01-2.09-1.06-3.44h3.63c.05.71.27,1.3.66,1.77.38.47.88.82,1.51,1.05.62.23,1.31.35,2.08.35s1.51-.12,2.11-.36c.61-.24,1.08-.58,1.43-1.01.34-.43.52-.94.53-1.53,0-.53-.16-.97-.47-1.32-.3-.35-.73-.64-1.28-.88s-1.19-.45-1.91-.63l-2.32-.6c-1.68-.43-3-1.08-3.97-1.96-.97-.88-1.46-2.05-1.46-3.5,0-1.2.33-2.25.98-3.15.65-.9,1.54-1.6,2.67-2.1,1.13-.5,2.4-.75,3.83-.75s2.71.25,3.8.75c1.09.5,1.95,1.19,2.57,2.08s.95,1.9.96,3.05h-3.55Z"/>
        <path class="cls-1" d="m280.31,78.24v-20.36h3.69v8.62h9.44v-8.62h3.7v20.36h-3.7v-8.65h-9.44v8.65h-3.69Z"/>
        <path class="cls-1" d="m313,78.24h-3.94l7.17-20.36h4.55l7.18,20.36h-3.94l-5.44-16.19h-.16l-5.43,16.19Zm.13-7.98h10.74v2.96h-10.74v-2.96Z"/>
      </g>
      <path class="cls-2" d="m94.41,41.04c-10.06,0-19.74-1.61-28.81-4.59C103.56,18.05,144.9,5.52,188.43.02c-1.06-.01-2.12-.02-3.19-.02-46.47,0-90.12,12.07-127.98,33.27-3.18,1.77-6.32,3.61-9.41,5.52-1.39.85-2.76,1.72-4.13,2.6-2.41,1.54-4.79,3.12-7.15,4.75-2.51,1.72-4.99,3.5-7.44,5.31-10.32,7.64-20.05,16.02-29.13,25.07,11.17-8.41,22.8-16.24,34.84-23.44.04-.03.09-.05.13-.08,9.4-5.64,20.46-7.96,31.32-6.54,16.95,2.21,30.64,9.45,57.94,32.04l-30.19-30.19c22.38-1.52,42.45-11.47,57.06-26.69-15.66,12.17-35.33,19.42-56.69,19.42Z"/>
    </g>
  </g>
</svg>