<svg width="66" height="66" viewBox="0 0 66 66" fill="none" xmlns="http://www.w3.org/2000/svg">
<path d="M63.7106 19.3127C63.7106 15.8137 59.9592 12.9773 55.3314 12.9773H10.3792C5.75141 12.9773 2 15.8137 2 19.3127" stroke="#4CAB65" stroke-width="3.5" stroke-miterlimit="10"/>
<path d="M4.1875 51.3572C4.1875 54.7427 7.74354 57.4879 12.1292 57.4879H54.7341C59.1198 57.4879 62.6758 54.7427 62.6758 51.3572" stroke="#4CAB65" stroke-width="3.5" stroke-miterlimit="10"/>
<path d="M20.1272 21.9995H16.2148V47.9992H20.1272V21.9995Z" fill="#4CAB65"/>
<path d="M27.4026 21.9998H23.4902V47.9995H27.4026V21.9998Z" fill="#4CAB65"/>
<path d="M34.8128 21.9998H30.9004V47.9995H34.8128V21.9998Z" fill="#4CAB65"/>
<path d="M42.0178 21.9995H38.1055V47.9992H42.0178V21.9995Z" fill="#4CAB65"/>
<path d="M49.3987 21.9998H45.4863V47.9995H49.3987V21.9998Z" fill="#4CAB65"/>
<path d="M20.1272 61.4236H16.2148V65.9997H20.1272V61.4236Z" fill="#4CAB65"/>
<path d="M27.4026 61.4236H23.4902V65.9997H27.4026V61.4236Z" fill="#4CAB65"/>
<path d="M34.8128 61.4236H30.9004V65.9997H34.8128V61.4236Z" fill="#4CAB65"/>
<path d="M42.0198 61.4236H38.1074V65.9997H42.0198V61.4236Z" fill="#4CAB65"/>
<path d="M49.3987 61.4236H45.4863V65.9997H49.3987V61.4236Z" fill="#4CAB65"/>
<path d="M27.4007 0H23.4883V4.57615H27.4007V0Z" fill="#4CAB65"/>
<path d="M34.8147 0H30.9023V4.57615H34.8147V0Z" fill="#4CAB65"/>
<path d="M42.0218 0H38.1094V4.57615H42.0218V0Z" fill="#4CAB65"/>
<path d="M52.8281 19.9438V16.9236L14.0278 16.9236V19.9438L52.8281 19.9438Z" fill="#4CAB65"/>
<path d="M52.2949 53.6203V50.6001L13.4946 50.6001V53.6203L52.2949 53.6203Z" fill="#4CAB65"/>
<path d="M52.2949 9.17572V6.15552L13.4946 6.15552V9.17572L52.2949 9.17572Z" fill="#4CAB65"/>
</svg>
